<svg width="447" height="400" viewBox="0 0 447 400" fill="none" xmlns="http://www.w3.org/2000/svg">
<path d="M399.192 254.65L446.697 340.658L334.909 326.102" fill="#DB5A5D"/>
<path d="M130.765 229.722C130.765 240.563 121.958 249.341 111.117 249.341C100.312 249.341 91.4977 240.563 91.4977 229.722C91.4977 218.873 100.312 210.095 111.117 210.095C121.958 210.095 130.765 218.873 130.765 229.722Z" fill="#DB5A5D"/>
<path d="M414.743 199.996C414.743 310.45 321.991 400 207.52 400C93.0989 400 0.302979 310.45 0.302979 199.996C0.302979 89.543 93.0989 0 207.52 0C321.991 0 414.743 89.543 414.743 199.996Z" fill="#DB5A5D"/>
<path d="M367.145 257.052C330.365 348.795 227.695 393.956 137.805 357.941C47.8804 321.919 4.81115 218.346 41.54 126.589L367.145 257.052Z" fill="#FBFEFB"/>
<path d="M122.312 243.852C122.312 250.567 116.88 255.977 110.165 255.977C103.478 255.977 98.0182 250.567 98.0182 243.852C98.0182 237.129 103.478 231.69 110.165 231.69C116.873 231.69 122.312 237.129 122.312 243.852Z" fill="#DB5A5D"/>
<path d="M176.879 277.003C183.587 277.003 189.025 271.565 189.025 264.856C189.025 258.148 183.587 252.709 176.879 252.709C170.17 252.709 164.732 258.148 164.732 264.856C164.732 271.565 170.17 277.003 176.879 277.003Z" fill="#DB5A5D"/>
<path d="M248.944 304.009C255.645 304.009 261.076 298.577 261.076 291.876C261.076 285.176 255.645 279.744 248.944 279.744C242.244 279.744 236.812 285.176 236.812 291.876C236.812 298.577 242.244 304.009 248.944 304.009Z" fill="#DB5A5D"/>
<path d="M132.013 187.907C160.389 187.907 183.392 164.904 183.392 136.529C183.392 108.153 160.389 85.1503 132.013 85.1503C103.638 85.1503 80.6348 108.153 80.6348 136.529C80.6348 164.904 103.638 187.907 132.013 187.907Z" fill="#DB5A5D"/>
<path d="M246.052 170.271C246.052 198.64 223.057 221.672 194.659 221.672C166.29 221.672 143.295 198.64 143.295 170.271C143.295 141.895 166.29 118.9 194.659 118.9C223.049 118.893 246.052 141.895 246.052 170.271Z" fill="#DB5A5D"/>
</svg>
