<svg width="614" height="620" viewBox="0 0 614 620" fill="none" xmlns="http://www.w3.org/2000/svg">
<g style="mix-blend-mode:plus-darker" opacity="0.4">
<path fill-rule="evenodd" clip-rule="evenodd" d="M225.825 620C328.113 620 419.716 577.955 481.392 511.61L614 528.089L544.836 408.585C556.061 377.682 562.141 344.608 562.141 310.226C562.141 139.151 411.607 0.462646 225.825 0.462646C40.1254 0.462646 -110.479 139.151 -110.479 310.226C-110.479 481.301 40.1254 620 225.825 620ZM112.682 554.857C258.569 610.638 425.199 540.691 484.89 398.595L268.433 315.827C253.138 332.94 230.38 343.798 204.953 343.798C167.841 343.798 136.396 320.622 125.594 288.621C118.492 290.498 111.01 291.502 103.282 291.502C60.4438 291.502 25.1507 260.673 20.4325 220.996L-43.5524 196.529C-103.162 338.647 -33.2623 499.064 112.682 554.857ZM67.823 396.93C78.7217 396.93 87.5367 388.552 87.5367 378.15C87.5367 367.738 78.71 359.315 67.823 359.315C56.9711 359.315 48.1093 367.738 48.1093 378.15C48.1093 388.552 56.9711 396.93 67.823 396.93ZM176.096 429.497C186.984 429.497 195.81 421.074 195.81 410.684C195.81 400.293 186.984 391.87 176.096 391.87C165.209 391.87 156.382 400.293 156.382 410.684C156.382 421.074 165.209 429.497 176.096 429.497ZM312.746 452.533C312.746 462.911 303.93 471.324 293.055 471.324C282.181 471.324 273.365 462.911 273.365 452.533C273.365 442.155 282.181 433.742 293.055 433.742C303.93 433.742 312.746 442.155 312.746 452.533Z" fill="#d7cec6"/>
</g>
</svg>

